<svg xmlns="http://www.w3.org/2000/svg" viewBox="0 0 512 512">
  <defs>
    <linearGradient id="bg" x1="0" y1="0" x2="0" y2="512" gradientUnits="userSpaceOnUse">
      <stop offset="0%" stop-color="#0F172A"/>
      <stop offset="100%" stop-color="#1E293B"/>
    </linearGradient>
    <linearGradient id="accent" x1="0" y1="0" x2="512" y2="512" gradientUnits="userSpaceOnUse">
      <stop offset="0%" stop-color="#60A5FA"/>
      <stop offset="100%" stop-color="#3B82F6"/>
    </linearGradient>
  </defs>
  <rect width="512" height="512" fill="url(#bg)" />
  
  <g transform="translate(0, 16)">
	  <!-- Left Page -->
	  <path d="M 256 120 C 190 96 110 100 70 120 V 380 C 110 360 190 356 256 380" fill="none" stroke="#F8FAFC" stroke-width="32" stroke-linejoin="round" stroke-linecap="round"/>
	  
	  <!-- Right Page -->
	  <path d="M 256 120 C 322 96 402 100 442 120 V 380 C 402 360 322 356 256 380" fill="none" stroke="#F8FAFC" stroke-width="32" stroke-linejoin="round" stroke-linecap="round"/>
	  
	  <!-- Center spine -->
	  <line x1="256" y1="120" x2="256" y2="380" stroke="#F8FAFC" stroke-width="32" stroke-linecap="round"/>
	  
	  <!-- Left lines -->
	  <line x1="120" y1="200" x2="200" y2="200" stroke="#94A3B8" stroke-width="24" stroke-linecap="round"/>
	  <line x1="120" y1="260" x2="210" y2="260" stroke="#94A3B8" stroke-width="24" stroke-linecap="round"/>
	  
	  <!-- Right lines -->
	  <line x1="312" y1="200" x2="392" y2="200" stroke="#94A3B8" stroke-width="24" stroke-linecap="round"/>
	  <line x1="302" y1="260" x2="392" y2="260" stroke="#94A3B8" stroke-width="24" stroke-linecap="round"/>
	  <line x1="302" y1="320" x2="360" y2="320" stroke="url(#accent)" stroke-width="24" stroke-linecap="round"/>
  </g>
</svg>
